# xmcd
#
# Track frame offsets: 
#        150
#        15082
#        26930
#        39652
#        57476
#        69781
#        85521
#        98806
#        109413
#        121334
#        134811
#        151790
#        166930
#        180206
#        193286
#        204672
#        217857
#        230576
#
# Disc length: 3238 seconds
#
# Revision: 0
# Processed by: cddbd v1.5.2PL0 Copyright (c) Steve Scherf et al.
# Submitted via: ExactAudioCopy v1.0b3
#
DISCID=ee0ca412
DTITLE=欧陽菲菲 - 雨の御堂筋 and 欧陽菲菲 イン・ベラミ Disc 1 雨の御堂筋 TYCN-60008-9
DYEAR=1900
DGENRE=Blues
TTITLE0=雨の御堂筋
TTITLE1=さよならをもう一度
TTITLE2=雨がやんだら
TTITLE3=愛の終りに 
TTITLE4=愛の終りに 
TTITLE5=愛のともしび
TTITLE6=雨のエア・ポート
TTITLE7=この胸のときめきを 
TTITLE8=オー・シャンゼリゼ
TTITLE9=雪が降る
TTITLE10=さすらいのギター
TTITLE11=あなたは再び帰らない
TTITLE12=恋の追跡(ラヴ・チェイス) (ボーナス・トラック)
TTITLE13=水色の夜明け (ボーナス・トラック)
TTITLE14=死んでもいいわ (ボーナス・トラック)
TTITLE15=恋の十字路 (ボーナス・トラック)
TTITLE16=嘆きの恋 (ボーナス・トラック)
TTITLE17=雨のヨコハマ (ボーナス・トラック)
EXTD=
EXTT0=
EXTT1=
EXTT2=
EXTT3=
EXTT4=
EXTT5=
EXTT6=
EXTT7=
EXTT8=
EXTT9=
EXTT10=
EXTT11=
EXTT12=
EXTT13=
EXTT14=
EXTT15=
EXTT16=
EXTT17=
PLAYORDER=
